<svg xmlns="http://www.w3.org/2000/svg" width="120" height="32" viewBox="0 0 120 32" fill="none"><g clip-path="url(#clip0_248_1442)"><path d="M64.7368 26.0545C64.6483 26.0545 64.5618 26.0809 64.4882 26.1302C64.4146 26.1796 64.3572 26.2498 64.3233 26.3318C64.2895 26.4139 64.2806 26.5042 64.2979 26.5914C64.3151 26.6785 64.3578 26.7586 64.4204 26.8214C64.4829 26.8842 64.5627 26.927 64.6495 26.9443C64.7363 26.9617 64.8263 26.9528 64.9081 26.9188C64.9898 26.8848 65.0597 26.8272 65.1089 26.7533C65.1581 26.6794 65.1843 26.5926 65.1843 26.5037C65.1843 26.3846 65.1372 26.2703 65.0533 26.1861C64.9693 26.1019 64.8555 26.0545 64.7368 26.0545ZM59.721 25.5638H60.6126V27.8963H61.2151V25.5638H62.1136V25.0835H59.7038V25.5638H59.721ZM76.5172 27.8963H77.1162V25.0766H76.5172V27.8963ZM73.894 25.2909C73.7099 25.4243 73.586 25.6256 73.5497 25.8506C73.5124 26.0987 73.4975 26.3497 73.5049 26.6005V27.8929H74.0867V26.7284H75.7564V26.2584H74.0867C74.0747 26.0741 74.1339 25.8921 74.252 25.7504C74.3276 25.6794 74.4172 25.6251 74.5151 25.5912C74.6129 25.5572 74.7168 25.5444 74.82 25.5535H75.7564V25.0766H74.8682C74.5297 25.0524 74.1914 25.1268 73.894 25.2909ZM67.7421 25.3772C67.6116 25.5386 67.514 25.7242 67.455 25.9234C67.3959 26.1226 67.3765 26.3316 67.3979 26.5383C67.3844 26.7267 67.4095 26.9159 67.4716 27.0942C67.5338 27.2725 67.6317 27.4361 67.7593 27.5749C68.0182 27.7992 68.3546 27.9121 68.6957 27.8894H69.6803V27.4125H68.7301C68.5582 27.4261 68.3874 27.3743 68.2516 27.2674C68.1829 27.192 68.1307 27.1028 68.0987 27.0057C68.0667 26.9087 68.0554 26.8059 68.0657 26.7042H69.6906V26.2239H68.0761C68.0682 26.131 68.079 26.0376 68.108 25.9491C68.137 25.8606 68.1835 25.779 68.2447 25.709C68.31 25.6505 68.3863 25.6058 68.4691 25.5773C68.5518 25.5488 68.6394 25.5372 68.7267 25.5431H69.6872V25.0662H68.7301C68.5553 25.051 68.3793 25.0706 68.212 25.1239C68.0448 25.1773 67.8898 25.2634 67.7559 25.3772H67.7421ZM70.9127 25.2909C70.7286 25.4243 70.6048 25.6256 70.5685 25.8506C70.5315 26.0988 70.5165 26.3497 70.5237 26.6005V27.8929H71.1055V26.7284H72.7751V26.2584H71.1055C71.0935 26.0741 71.1527 25.8921 71.2707 25.7504C71.3463 25.6794 71.436 25.6251 71.5338 25.5912C71.6317 25.5572 71.7356 25.5444 71.8388 25.5535H72.7751V25.0766H71.887C71.5542 25.0559 71.2224 25.1302 70.9299 25.2909H70.9127ZM58.5196 27.1085L57.3698 25.0732H56.6331V27.8929H57.2011V25.7504L58.4094 27.8929H59.091V25.0732H58.5402V27.1085H58.5196ZM53.8274 25.3807C53.6967 25.542 53.599 25.7275 53.5399 25.9268C53.4809 26.126 53.4616 26.335 53.4831 26.5418C53.4696 26.7302 53.4947 26.9194 53.5569 27.0977C53.6191 27.276 53.717 27.4396 53.8446 27.5784C54.1035 27.8026 54.4398 27.9156 54.781 27.8929H55.7655V27.416H54.8051C54.6331 27.4295 54.4623 27.3777 54.3266 27.2709C54.258 27.1953 54.206 27.1061 54.174 27.0091C54.1419 26.912 54.1306 26.8093 54.1407 26.7076H55.7655V26.2273H54.1544C54.1465 26.1345 54.1574 26.041 54.1864 25.9526C54.2154 25.8641 54.2619 25.7824 54.3231 25.7124C54.3884 25.654 54.4647 25.6092 54.5474 25.5807C54.6302 25.5523 54.7178 25.5406 54.8051 25.5466H55.7655V25.0697H54.7982C54.4514 25.0425 54.1078 25.1529 53.8412 25.3772L53.8274 25.3807ZM45.8441 25.3807C45.7135 25.542 45.6158 25.7275 45.5567 25.9268C45.4976 26.126 45.4783 26.335 45.4999 26.5418C45.4864 26.7302 45.5115 26.9194 45.5736 27.0977C45.6358 27.276 45.7337 27.4396 45.8614 27.5784C46.1204 27.8023 46.4566 27.9152 46.7977 27.8929H47.7823V27.416H46.8218C46.6498 27.4295 46.4791 27.3777 46.3433 27.2709C46.2747 27.1953 46.2227 27.1061 46.1907 27.0091C46.1587 26.912 46.1473 26.8093 46.1574 26.7076H47.7823V26.2273H46.1712C46.1633 26.1345 46.1742 26.041 46.2032 25.9526C46.2321 25.8641 46.2786 25.7824 46.3399 25.7124C46.4052 25.654 46.4814 25.6092 46.5642 25.5807C46.647 25.5523 46.7345 25.5406 46.8218 25.5466H47.7823V25.0697H46.8149C46.4681 25.0425 46.1245 25.1529 45.8579 25.3772L45.8441 25.3807ZM37.138 25.3807C37.0073 25.542 36.9096 25.7275 36.8505 25.9268C36.7914 26.126 36.7721 26.335 36.7937 26.5418C36.7802 26.7302 36.8053 26.9194 36.8675 27.0977C36.9296 27.276 37.0276 27.4396 37.1552 27.5784C37.414 27.8026 37.7504 27.9156 38.0916 27.8929H39.0761V27.416H38.1157C37.9437 27.4295 37.7729 27.3777 37.6371 27.2709C37.5685 27.1953 37.5166 27.1061 37.4845 27.0091C37.4525 26.912 37.4412 26.8093 37.4512 26.7076H39.0761V26.2273H37.4719C37.464 26.1345 37.4749 26.041 37.5039 25.9526C37.5328 25.8641 37.5794 25.7824 37.6406 25.7124C37.7058 25.6538 37.782 25.6089 37.8648 25.5805C37.9476 25.552 38.0352 25.5404 38.1225 25.5466H39.083V25.0697H38.1157C37.7665 25.0407 37.4201 25.1512 37.1517 25.3772L37.138 25.3807ZM42.9111 25.4982C42.7105 25.8048 42.6151 26.1688 42.6392 26.5348C42.6256 26.7233 42.6507 26.9125 42.7129 27.0908C42.7751 27.2691 42.873 27.4327 43.0006 27.5715C43.2596 27.7954 43.5959 27.9083 43.937 27.886H44.9181V27.4091H43.9439C43.8282 27.4221 43.7112 27.4024 43.606 27.3524C43.5008 27.3023 43.4116 27.2238 43.3483 27.1257C43.2716 26.9655 43.2372 26.7882 43.2485 26.6109C43.2485 26.5763 43.2485 26.5279 43.2485 26.4726C43.2357 26.2491 43.2783 26.0259 43.3724 25.823C43.4303 25.7259 43.5143 25.6471 43.6148 25.5957C43.7152 25.5444 43.8281 25.5226 43.9404 25.5327H44.9009V25.0628H43.9439C43.7496 25.0478 43.5546 25.0794 43.375 25.1551C43.1954 25.2308 43.0364 25.3484 42.9111 25.4982ZM49.2695 27.2259C49.197 27.0892 49.1647 26.9346 49.1765 26.7802V25.0697H48.6085V26.7525C48.5818 27.0555 48.6636 27.3582 48.8392 27.6061C48.951 27.7118 49.0842 27.7922 49.2298 27.8417C49.3753 27.8911 49.5297 27.9086 49.6826 27.8929H50.4847V27.4402H49.7962C49.6955 27.4512 49.5937 27.4375 49.4995 27.4002C49.4054 27.3628 49.3217 27.303 49.2557 27.2259H49.2695ZM51.7756 27.2259C51.7031 27.0892 51.6709 26.9346 51.6827 26.7802V25.0697H51.1147V26.7525C51.0877 27.0556 51.1695 27.3583 51.3453 27.6061C51.4572 27.7118 51.5904 27.7922 51.7359 27.8417C51.8815 27.8911 52.0359 27.9086 52.1888 27.8929H53.0253V27.4402H52.3368C52.2307 27.4573 52.122 27.4465 52.0212 27.409C51.9205 27.3714 51.8312 27.3084 51.7619 27.2259H51.7756ZM42.1365 25.0732H41.4721L40.9007 25.9716L40.3258 25.0732H39.6373L40.5736 26.483L39.6063 27.8929H40.2948L40.9179 26.9115L41.51 27.8929H42.1985L41.2449 26.445L42.1365 25.0732ZM99.4548 25.4982C99.2542 25.8048 99.1587 26.1688 99.1828 26.5348C99.1693 26.7233 99.1944 26.9125 99.2566 27.0908C99.3188 27.2691 99.4167 27.4327 99.5443 27.5715C99.8032 27.7957 100.14 27.9087 100.481 27.886H101.462V27.4091H100.501C100.386 27.4221 100.269 27.4024 100.163 27.3524C100.058 27.3023 99.969 27.2238 99.9058 27.1257C99.8291 26.9655 99.7947 26.7882 99.8059 26.6109C99.8059 26.5763 99.8059 26.5279 99.8059 26.4726C99.793 26.2491 99.8356 26.0259 99.9299 25.823C99.9877 25.7259 100.072 25.6471 100.172 25.5957C100.273 25.5444 100.386 25.5226 100.498 25.5327H101.458V25.0628H100.491C100.296 25.0472 100.101 25.0786 99.9203 25.1543C99.74 25.23 99.5804 25.348 99.4548 25.4982ZM111.084 25.2459C110.806 25.0763 110.483 24.9955 110.158 25.0144C109.942 25.0089 109.726 25.0404 109.521 25.1077C109.301 25.1795 109.113 25.3246 108.987 25.5189C108.828 25.8104 108.753 26.1407 108.77 26.4726C108.751 26.8264 108.843 27.1773 109.035 27.4747C109.177 27.67 109.379 27.8122 109.61 27.879C109.789 27.9303 109.975 27.9547 110.161 27.9516C110.509 27.9712 110.851 27.8631 111.125 27.6475C111.278 27.4965 111.395 27.3134 111.469 27.1115C111.543 26.9096 111.571 26.6938 111.552 26.4796C111.559 26.2465 111.533 26.0137 111.473 25.7885C111.404 25.568 111.263 25.377 111.073 25.2459H111.084ZM110.77 27.2121C110.7 27.3057 110.607 27.3799 110.501 27.4277C110.394 27.4754 110.277 27.4952 110.161 27.4851C110.03 27.4966 109.899 27.4701 109.782 27.4089C109.665 27.3476 109.569 27.2542 109.504 27.1396C109.413 26.9212 109.374 26.6846 109.39 26.4485C109.372 26.1854 109.445 25.9241 109.597 25.709C109.665 25.6269 109.752 25.5621 109.85 25.5195C109.948 25.4769 110.054 25.4578 110.161 25.4636C110.261 25.4562 110.362 25.4703 110.456 25.5048C110.551 25.5394 110.637 25.5936 110.708 25.664C110.877 25.8939 110.956 26.1781 110.929 26.4623C110.952 26.7225 110.897 26.9836 110.77 27.2121ZM78.1489 25.4844C77.9483 25.791 77.8529 26.155 77.877 26.521C77.8635 26.7094 77.8886 26.8986 77.9507 27.0769C78.0129 27.2552 78.1108 27.4188 78.2384 27.5577C78.4973 27.7819 78.8336 27.8949 79.1748 27.8721H80.1559V27.3953H79.1955C79.0798 27.4082 78.9628 27.3886 78.8576 27.3385C78.7524 27.2885 78.6632 27.21 78.5999 27.1119C78.5232 26.9517 78.4888 26.7744 78.5001 26.597C78.5001 26.5625 78.5001 26.5141 78.5001 26.4588C78.4871 26.2353 78.5297 26.0121 78.624 25.8092C78.6819 25.712 78.7659 25.6333 78.8664 25.5819C78.9668 25.5306 79.0797 25.5087 79.192 25.5189H80.1525V25.049H79.1851C78.9886 25.0344 78.7915 25.0677 78.6105 25.1459C78.4296 25.2241 78.27 25.3449 78.1455 25.4982L78.1489 25.4844ZM107.483 27.0981L106.33 25.0628H105.593V27.8825H106.161V25.7401L107.369 27.8825H108.034V25.0628H107.483V27.0981ZM118.475 25.8195C118.533 25.7224 118.617 25.6436 118.717 25.5923C118.818 25.5409 118.931 25.5191 119.043 25.5293H120.003V25.0593H119.036C118.843 25.043 118.648 25.0731 118.469 25.147C118.289 25.2209 118.13 25.3365 118.003 25.4844C117.801 25.7906 117.705 26.1546 117.728 26.521C117.714 26.7094 117.739 26.8986 117.802 27.0769C117.864 27.2552 117.962 27.4188 118.089 27.5577C118.348 27.7819 118.684 27.8949 119.026 27.8721H120.007V27.3953H119.046C118.931 27.4078 118.814 27.388 118.709 27.338C118.604 27.288 118.514 27.2097 118.451 27.1119C118.374 26.9517 118.34 26.7744 118.351 26.597C118.351 26.5625 118.351 26.5141 118.351 26.4588C118.341 26.2437 118.382 26.0293 118.471 25.8334L118.475 25.8195ZM116.361 27.8929H116.96V25.0732H116.361V27.8929ZM113.865 27.2674L113.139 25.0732H112.285V27.8929H112.812V25.6744L113.562 27.8929H114.172L114.898 25.6952V27.8929H115.414V25.0732H114.574L113.865 27.2674ZM104.378 25.2459C104.099 25.0763 103.777 24.9955 103.452 25.0144C103.236 25.0089 103.02 25.0404 102.815 25.1077C102.595 25.1797 102.407 25.3248 102.281 25.5189C102.122 25.8104 102.047 26.1407 102.064 26.4726C102.045 26.8264 102.138 27.1772 102.329 27.4747C102.471 27.67 102.673 27.8122 102.904 27.879C103.083 27.9303 103.269 27.9547 103.455 27.9516C103.802 27.9712 104.145 27.8631 104.419 27.6475C104.572 27.4965 104.689 27.3134 104.763 27.1115C104.837 26.9096 104.865 26.6938 104.846 26.4796C104.853 26.2465 104.826 26.0137 104.767 25.7885C104.7 25.5695 104.563 25.3787 104.378 25.2459ZM104.064 27.2121C103.994 27.3057 103.901 27.3799 103.795 27.4277C103.688 27.4754 103.571 27.4952 103.455 27.4851C103.324 27.4966 103.192 27.4701 103.076 27.4089C102.959 27.3476 102.863 27.2542 102.798 27.1396C102.706 26.9212 102.668 26.6846 102.684 26.4485C102.666 26.1854 102.739 25.9241 102.89 25.709C102.959 25.6269 103.046 25.5621 103.144 25.5195C103.242 25.4769 103.348 25.4578 103.455 25.4636C103.555 25.4564 103.656 25.4706 103.75 25.5051C103.844 25.5397 103.93 25.5938 104.002 25.664C104.171 25.8939 104.25 26.1781 104.223 26.4623C104.245 26.7229 104.188 26.9841 104.061 27.2121H104.064ZM96.5631 25.3772C96.4325 25.5386 96.335 25.7242 96.2759 25.9234C96.2168 26.1226 96.1974 26.3316 96.2188 26.5383C96.2053 26.7267 96.2304 26.9159 96.2926 27.0942C96.3547 27.2725 96.4527 27.4361 96.5803 27.5749C96.8391 27.7992 97.1755 27.9121 97.5167 27.8894H98.5012V27.4125H97.5408C97.3688 27.4261 97.198 27.3743 97.0622 27.2674C96.9935 27.192 96.9413 27.1028 96.9093 27.0057C96.8773 26.9087 96.866 26.8059 96.8763 26.7042H98.5012V26.2239H96.8901C96.8822 26.131 96.8931 26.0376 96.9221 25.9491C96.9511 25.8606 96.9976 25.779 97.0588 25.709C97.1241 25.6505 97.2004 25.6058 97.2831 25.5773C97.3659 25.5488 97.4535 25.5372 97.5408 25.5431H98.5012V25.0662H97.5339C97.3591 25.051 97.183 25.0706 97.0158 25.1239C96.8485 25.1773 96.6935 25.2634 96.5596 25.3772H96.5631ZM82.6483 25.3772C82.5178 25.5386 82.4202 25.7242 82.3612 25.9234C82.3021 26.1226 82.2827 26.3316 82.3041 26.5383C82.2906 26.7267 82.3157 26.9159 82.3778 27.0942C82.44 27.2725 82.5379 27.4361 82.6655 27.5749C82.9244 27.7992 83.2608 27.9121 83.6019 27.8894H84.5658V27.4125H83.6054C83.4334 27.4261 83.2626 27.3743 83.1268 27.2674C83.0583 27.1919 83.0063 27.1027 82.9742 27.0056C82.9422 26.9086 82.9309 26.8059 82.9409 26.7042H84.5658V26.2239H82.9547C82.9468 26.131 82.9577 26.0376 82.9867 25.9491C83.0157 25.8606 83.0622 25.779 83.1234 25.709C83.1887 25.6505 83.265 25.6058 83.3477 25.5773C83.4305 25.5488 83.5181 25.5372 83.6054 25.5431H84.5658V25.0662H83.5985C83.2523 25.0409 82.9101 25.1526 82.6449 25.3772H82.6483ZM80.9271 27.8963H81.5261V25.0766H80.9271V27.8963ZM87.3267 27.1119L86.1735 25.0766H85.4368V27.8963H86.0048V25.7539L87.2131 27.8963H87.8775V25.0766H87.3267V27.1119ZM88.511 25.5638H89.4026V27.8963H90.005V25.5638H90.9035V25.0835H88.4938V25.5638H88.511ZM93.5268 26.0545C93.4382 26.0545 93.3517 26.0809 93.2781 26.1302C93.2045 26.1796 93.1472 26.2498 93.1133 26.3318C93.0794 26.4139 93.0706 26.5042 93.0878 26.5914C93.1051 26.6785 93.1477 26.7586 93.2103 26.8214C93.2729 26.8842 93.3526 26.927 93.4394 26.9443C93.5263 26.9617 93.6162 26.9528 93.698 26.9188C93.7798 26.8848 93.8497 26.8272 93.8989 26.7533C93.948 26.6794 93.9743 26.5926 93.9743 26.5037C93.9743 26.3864 93.9286 26.2737 93.8469 26.1897C93.7652 26.1058 93.654 26.0572 93.5371 26.0545H93.5268Z" fill="white"/><path d="M60.3157 7.29485C59.46 7.56752 58.6899 8.0594 58.0815 8.72197C57.4908 9.39814 57.0694 10.2061 56.8525 11.0786C56.3508 13.2265 56.3508 15.4617 56.8525 17.6096C57.0694 18.4821 57.4908 19.29 58.0815 19.9662C58.6909 20.6277 59.4606 21.1194 60.3157 21.3934C61.4157 21.7387 62.5646 21.9009 63.7169 21.8737H75.6143V18.857H63.7134C63.0945 18.8683 62.4767 18.7998 61.8751 18.6531C61.4361 18.5467 61.0266 18.3424 60.6771 18.0553C60.3721 17.7915 60.1357 17.4571 59.9886 17.0809C59.8227 16.6557 59.7183 16.2088 59.6788 15.7539H75.3389V12.9342H59.6788C59.7188 12.4772 59.8231 12.0281 59.9886 11.6004C60.1371 11.223 60.3731 10.8865 60.6771 10.6191C61.027 10.331 61.4361 10.1244 61.8751 10.0143C62.4762 9.86488 63.0943 9.79517 63.7134 9.807H75.6143V6.81452H63.7134C62.5623 6.78778 61.4146 6.95002 60.3157 7.29485ZM48.611 12.7096L53.7507 9.22648V6.80762H37.2266V9.64805H48.4905L39.7155 15.5708H48.556C49.0542 15.5552 49.5499 15.6483 50.0087 15.8438C50.3073 15.9707 50.561 16.1849 50.7366 16.4586C50.9122 16.7322 51.0016 17.0526 50.9933 17.378C50.9995 17.6666 50.923 17.9508 50.7729 18.197C50.5869 18.4725 50.3197 18.6827 50.0087 18.7983C49.5435 18.9673 49.0505 19.0459 48.556 19.0298H37.2403V21.8702H48.2289C49.1262 21.8831 50.0214 21.7821 50.8934 21.5696C51.5483 21.4103 52.1658 21.1238 52.7111 20.7264C53.1569 20.3898 53.5119 19.9468 53.7439 19.4375C53.9763 18.9221 54.0938 18.3619 54.0881 17.7962C54.1053 15.3808 52.9899 12.6094 48.6214 12.7096H48.611ZM97.0716 14.0711C97.6275 13.3343 97.9121 12.4272 97.8772 11.5037C97.9176 10.6045 97.6691 9.71611 97.1683 8.96951C96.6674 8.22291 95.9408 7.65763 95.0956 7.35704C94.0793 6.97038 92.9979 6.78497 91.9113 6.81107H78.8916V21.8702H82.0278V16.9219H91.8528C92.2695 16.9126 92.6849 16.9733 93.0817 17.1016C93.3641 17.1957 93.621 17.3542 93.8322 17.5646C94.0005 17.741 94.1286 17.9521 94.2075 18.1832C94.2782 18.3935 94.3131 18.6143 94.3107 18.8363V21.8737H97.557V18.9019C97.5795 18.1564 97.3488 17.4253 96.903 16.8286C96.3611 16.1752 95.6332 15.7037 94.8168 15.4775C95.6993 15.2588 96.4914 14.7682 97.082 14.0746L97.0716 14.0711ZM94.5483 12.6267C94.4563 12.9154 94.3018 13.1801 94.0959 13.4018C93.89 13.6234 93.6377 13.7965 93.3571 13.9087C92.9715 14.061 92.5597 14.135 92.1454 14.1264H82.0278V9.5893H92.1626C92.5764 9.57897 92.9882 9.6506 93.3744 9.8001C93.6715 9.92045 93.9367 10.1086 94.1489 10.3495C94.3354 10.5618 94.4771 10.8098 94.5655 11.0786C94.6473 11.3284 94.688 11.5898 94.686 11.8527C94.6832 12.1166 94.6366 12.3782 94.5483 12.6267ZM119.631 9.92449C119.391 9.31485 119.019 8.76612 118.543 8.31768C118.007 7.82209 117.37 7.44846 116.677 7.22227C115.812 6.93686 114.905 6.79904 113.995 6.81452H101.003V21.8737H104.139V16.9426H114.009C114.919 16.9553 115.826 16.8163 116.691 16.5314C117.385 16.3007 118.021 15.9223 118.557 15.4222C119.034 14.9693 119.405 14.4158 119.644 13.8016C119.878 13.1801 119.995 12.5204 119.989 11.8561C119.996 11.1977 119.88 10.5437 119.648 9.92795L119.631 9.92449ZM116.584 12.644C116.49 12.9174 116.344 13.1698 116.154 13.3869C115.937 13.6315 115.667 13.823 115.365 13.9467C114.978 14.1012 114.563 14.1764 114.147 14.1679H104.139V9.5893H114.171C114.583 9.5818 114.993 9.657 115.376 9.81046C115.678 9.9364 115.949 10.1289 116.167 10.3737C116.534 10.7909 116.735 11.3278 116.735 11.8838C116.734 12.1441 116.688 12.4022 116.601 12.6474L116.584 12.644Z" fill="white"/><path fill-rule="evenodd" clip-rule="evenodd" d="M12.1935 31.8836L24.3869 24.9277V18.5868L6.55803 28.8117L12.1935 31.8836ZM19.588 9.29492L0 20.5254V24.9242L1.99323 26.0611L19.588 15.9606L24.3869 18.573L31.0138 15.501L19.588 9.29492Z" fill="#0095DA"/><path fill-rule="evenodd" clip-rule="evenodd" d="M19.5898 15.975L24.3853 18.5873L31.0122 15.5154L19.5898 9.29199V15.975Z" fill="#00679E"/><path fill-rule="evenodd" clip-rule="evenodd" d="M0 8.47984V15.1628L14.7891 6.67952L19.588 9.29189L26.2149 6.22339L14.7891 0L0 8.47984Z" fill="#F15A22"/><path fill-rule="evenodd" clip-rule="evenodd" d="M14.7891 6.67952L19.588 9.29189L26.2148 6.22339L14.7891 0V6.67952Z" fill="#DF3C2A"/></g><defs><clipPath id="clip0_248_1442"><rect width="120" height="31.8841" fill="white"/></clipPath></defs></svg>