<svg width="31" height="26" viewBox="0 0 31 26" fill="none" xmlns="http://www.w3.org/2000/svg">
<path d="M19.0111 11.534C18.4954 11.4447 17.9615 11.3962 17.4211 11.3962C16.6657 11.3962 15.9373 11.4886 15.2382 11.6687C14.5457 11.8501 13.8097 11.9467 13.0578 11.9467C12.7894 11.9467 12.5295 11.9354 12.2721 11.9091L15.2363 6.7724L17.0293 9.87093C16.4113 9.8981 15.8186 9.98662 15.2381 10.1354C14.8183 10.2432 14.3865 10.3201 13.9433 10.3637L13.4034 11.2988C14.0329 11.2742 14.6501 11.1794 15.2381 11.0322C15.9369 10.8514 16.665 10.7581 17.4203 10.7581C17.82 10.7581 18.2212 10.7848 18.6082 10.8361L18.04 9.85257L16.5717 7.30906L15.2383 5L10.874 12.5585C11.5704 12.7488 12.3012 12.8407 13.0573 12.8407C13.8095 12.8407 14.5458 12.7488 15.2383 12.5585C15.9371 12.3859 16.6652 12.2864 17.4205 12.2864C18.1725 12.2864 18.9039 12.3857 19.6024 12.5585L19.0111 11.534Z" fill="#0071B9"/>
<path d="M5.60646 16.3713H5V16.0385H6.65016V16.3713H6.04369V18.0751H5.60646V16.3713Z" fill="#232323"/>
<path d="M7.4026 16.0382V17.2793C7.4026 17.3357 7.40589 17.3936 7.41248 17.4528C7.41907 17.512 7.43643 17.5661 7.46464 17.615C7.49291 17.6639 7.53663 17.7038 7.59585 17.7348C7.65508 17.7658 7.73832 17.7814 7.84552 17.7814C7.86247 17.7814 7.88732 17.7805 7.92026 17.7786C7.95313 17.7767 7.98889 17.7701 8.02745 17.7588C8.06602 17.7476 8.10404 17.7297 8.14172 17.7052C8.17933 17.6809 8.2122 17.647 8.24041 17.6037C8.25173 17.5887 8.26106 17.5718 8.26861 17.553C8.27609 17.5342 8.28275 17.5112 8.28838 17.4838C8.294 17.4567 8.29826 17.4247 8.30107 17.388C8.30389 17.3513 8.30533 17.3076 8.30533 17.2568V16.0382H8.7313V17.3104C8.7313 17.4627 8.70405 17.5901 8.6495 17.6929C8.59494 17.7956 8.52439 17.8781 8.43792 17.9407C8.35145 18.0033 8.2555 18.0479 8.15023 18.0744C8.04489 18.1009 7.9405 18.1142 7.83715 18.1142C7.78636 18.1142 7.72666 18.1104 7.65803 18.1029C7.5894 18.0952 7.51981 18.0786 7.44926 18.053C7.37878 18.0274 7.30961 17.9914 7.24194 17.945C7.17427 17.8985 7.11683 17.8365 7.06989 17.7588C7.02096 17.6798 6.99131 17.6004 6.98109 17.5204C6.97072 17.4405 6.96558 17.3526 6.96558 17.2566V16.0382H7.4026ZM7.46745 15.4546H7.75514V15.7874H7.46745V15.4546ZM7.95265 15.4546H8.24034V15.7874H7.95265V15.4546Z" fill="#232323"/>
<path d="M9.52466 16.0385L10.0578 17.6435L10.5937 16.0385H11.0253L10.275 18.0751H9.79828L9.04797 16.0385H9.52466Z" fill="#232323"/>
<path d="M11.4027 16.0385H12.1304C12.1567 16.0385 12.1888 16.0389 12.2264 16.0399C12.2639 16.0409 12.3044 16.0441 12.3476 16.0498C12.3909 16.0555 12.4342 16.0649 12.4774 16.0781C12.5207 16.0912 12.5611 16.1101 12.5987 16.1345C12.6759 16.1835 12.7327 16.2443 12.7694 16.3167C12.806 16.3892 12.8244 16.4669 12.8244 16.5497C12.8244 16.6213 12.8116 16.6882 12.7863 16.7503C12.7609 16.8124 12.7256 16.8661 12.6806 16.9113C12.6373 16.9546 12.5945 16.9852 12.5522 17.0031C12.5099 17.021 12.4727 17.0347 12.4408 17.0441C12.4897 17.0572 12.5319 17.0732 12.5677 17.092C12.6034 17.1107 12.6335 17.1347 12.6579 17.1638C12.6823 17.1929 12.7022 17.2296 12.7171 17.2737C12.7322 17.3179 12.7436 17.3718 12.751 17.4356C12.7585 17.4958 12.7655 17.5521 12.7722 17.6047C12.7788 17.6573 12.7867 17.709 12.7963 17.7596C12.8057 17.8104 12.8164 17.8615 12.8287 17.9132C12.8409 17.9648 12.8573 18.0188 12.8781 18.0751H12.5762C12.565 18.0413 12.5547 18.0013 12.5453 17.9552C12.5358 17.9092 12.5273 17.8618 12.5198 17.8128C12.5124 17.7639 12.5058 17.7155 12.5001 17.6675C12.4945 17.6196 12.4889 17.5759 12.4833 17.5364C12.4737 17.4631 12.4616 17.4019 12.4465 17.353C12.4315 17.3042 12.408 17.2652 12.3763 17.236C12.3444 17.2068 12.3014 17.1861 12.247 17.174C12.1927 17.1617 12.1232 17.1556 12.0391 17.1556H11.685V18.0751H11.4029V16.0385H11.4027ZM11.6791 16.9185H12.1234C12.1309 16.9185 12.1453 16.9185 12.1669 16.9185C12.1886 16.9185 12.2129 16.9171 12.24 16.9143C12.2671 16.9115 12.2944 16.9067 12.3216 16.9001C12.3487 16.8935 12.3717 16.8846 12.3903 16.8732C12.3997 16.8675 12.4123 16.8586 12.4284 16.8463C12.4443 16.834 12.4598 16.817 12.4748 16.7953C12.4898 16.7736 12.5024 16.7476 12.5128 16.7173C12.5231 16.6871 12.5282 16.6503 12.5282 16.6068C12.5282 16.5238 12.5123 16.46 12.4805 16.4156C12.4486 16.3713 12.4111 16.3387 12.368 16.3178C12.3249 16.2971 12.2804 16.2849 12.2344 16.2811C12.1886 16.2773 12.1516 16.2754 12.1234 16.2754H11.6792L11.6791 16.9185Z" fill="#232323"/>
<path d="M13.2488 16.0385H13.5167V16.8677C13.5599 16.7925 13.6225 16.7347 13.7043 16.6943C13.7861 16.6538 13.8768 16.6336 13.9765 16.6336C14.0141 16.6336 14.0545 16.6374 14.0978 16.6448C14.1411 16.6523 14.1834 16.6646 14.2248 16.6815C14.2661 16.6984 14.3042 16.7215 14.339 16.7506C14.3738 16.7798 14.4015 16.816 14.4222 16.8592C14.4297 16.8743 14.4363 16.8898 14.4419 16.9058C14.4476 16.9218 14.4522 16.9424 14.4561 16.9678C14.4599 16.9932 14.4631 17.0237 14.466 17.0595C14.4688 17.0953 14.4702 17.1385 14.4702 17.1893V18.075H14.1995V17.2372C14.1995 17.2053 14.198 17.1667 14.1952 17.1215C14.1924 17.0764 14.1811 17.0327 14.1614 16.9904C14.1416 16.9481 14.1111 16.9119 14.0697 16.8818C14.0283 16.8517 13.97 16.8367 13.8948 16.8367C13.8458 16.8367 13.8026 16.8433 13.765 16.8564C13.7273 16.8695 13.6949 16.8861 13.6677 16.9058C13.6404 16.9255 13.6183 16.9463 13.6014 16.9678C13.5844 16.9894 13.5713 17.0087 13.5619 17.0257C13.5393 17.0651 13.5262 17.1141 13.5224 17.1724C13.5186 17.2307 13.5168 17.2814 13.5168 17.3247V18.0751H13.2488V16.0385H13.2488Z" fill="#232323"/>
<path d="M15.0957 17.4143C15.0938 17.4873 15.1003 17.5546 15.1154 17.6163C15.1304 17.678 15.1544 17.7318 15.1873 17.7776C15.2202 17.8235 15.2626 17.859 15.3143 17.8842C15.366 17.9095 15.4285 17.9221 15.5019 17.9221C15.5883 17.9221 15.6627 17.8988 15.7247 17.8523C15.7867 17.8057 15.8234 17.7321 15.8347 17.6315H16.0998C16.096 17.6673 16.0876 17.7119 16.0745 17.7655C16.0613 17.8191 16.0293 17.8731 15.9786 17.9276C15.9635 17.9446 15.9429 17.9644 15.9166 17.9869C15.8902 18.0094 15.8574 18.0302 15.8179 18.0489C15.7784 18.0677 15.7318 18.0837 15.6782 18.0969C15.6247 18.11 15.5621 18.1166 15.4907 18.1166C15.2669 18.1166 15.1014 18.0517 14.9943 17.9219C14.8871 17.7922 14.8335 17.6154 14.8335 17.3917C14.8335 17.2525 14.8522 17.1261 14.8898 17.0123C14.9274 16.8985 15.0017 16.803 15.1127 16.726C15.1465 16.7015 15.1819 16.6827 15.2185 16.6696C15.2551 16.6564 15.2909 16.646 15.3257 16.6385C15.3605 16.6311 15.3929 16.6263 15.423 16.6244C15.4531 16.6226 15.4785 16.6216 15.4992 16.6216C15.6045 16.6216 15.6933 16.6357 15.7657 16.6639C15.8381 16.6921 15.8969 16.7293 15.942 16.7753C15.9871 16.8214 16.0219 16.8731 16.0464 16.9305C16.0708 16.9878 16.0882 17.0462 16.0986 17.1053C16.1089 17.1646 16.1142 17.2215 16.1142 17.276C16.1142 17.3306 16.1142 17.3766 16.1142 17.4142L15.0957 17.4143ZM15.8431 17.2281C15.8431 17.1943 15.8403 17.1534 15.8347 17.1054C15.8291 17.0575 15.8145 17.0119 15.791 16.9686C15.7675 16.9254 15.7322 16.8883 15.6852 16.8572C15.6382 16.8262 15.5743 16.8107 15.4934 16.8107C15.4501 16.8107 15.406 16.8177 15.3608 16.8319C15.3157 16.8459 15.2748 16.8695 15.2381 16.9023C15.2014 16.9352 15.1709 16.9781 15.1464 17.0307C15.1219 17.0834 15.1088 17.1492 15.1069 17.2281H15.8431Z" fill="#232323"/>
<path d="M16.4459 16.0385H16.7647V16.329H16.4459V16.0385ZM16.4741 16.6589H16.7393V18.075H16.4741V16.6589Z" fill="#232323"/>
<path d="M17.2106 16.8224L17.2078 16.6588H17.4729L17.4757 16.8873C17.4832 16.8722 17.4959 16.8506 17.5138 16.8224C17.5317 16.7942 17.558 16.766 17.5928 16.7378C17.6275 16.7096 17.6722 16.6847 17.7267 16.6631C17.7813 16.6415 17.849 16.6306 17.9299 16.6306C17.9618 16.6306 18.0065 16.6353 18.0638 16.6447C18.1212 16.6542 18.1781 16.6752 18.2344 16.7082C18.2908 16.741 18.3397 16.7896 18.3812 16.8534C18.4225 16.9174 18.4432 17.0039 18.4432 17.1129V18.0748H18.1724V17.175C18.1724 17.128 18.1677 17.0838 18.1583 17.0424C18.1489 17.0011 18.1283 16.9644 18.0963 16.9324C18.0625 16.9004 18.0234 16.8764 17.9792 16.8604C17.935 16.8445 17.8903 16.8364 17.8452 16.8364C17.7963 16.8364 17.7498 16.8449 17.7057 16.8618C17.6614 16.8787 17.6224 16.9051 17.5886 16.9407C17.5547 16.9765 17.5274 17.0207 17.5068 17.0733C17.486 17.126 17.4758 17.1881 17.4758 17.2595V18.0747H17.2106V16.8224H17.2106Z" fill="#232323"/>
<path d="M18.887 16.0385H19.1521V18.0722H18.887V16.0385Z" fill="#232323"/>
<path d="M20.4855 18.0743C20.476 18.0385 20.4695 18.0038 20.4657 17.9699C20.462 17.936 20.4601 17.9003 20.4601 17.8627C20.4281 17.9211 20.3929 17.9671 20.3544 18.001C20.3158 18.0348 20.2767 18.0607 20.2373 18.0786C20.1978 18.0964 20.1597 18.1077 20.1231 18.1124C20.0864 18.1171 20.053 18.1195 20.0229 18.1195C19.942 18.1195 19.8706 18.1087 19.8086 18.087C19.7465 18.0654 19.6943 18.0358 19.652 17.9982C19.6097 17.9606 19.5777 17.9164 19.5561 17.8655C19.5345 17.8148 19.5237 17.7603 19.5237 17.7019C19.5237 17.6737 19.5269 17.6418 19.5336 17.6061C19.5402 17.5704 19.5523 17.5341 19.5702 17.4975C19.5881 17.4608 19.613 17.4242 19.645 17.3874C19.6769 17.3508 19.7193 17.3173 19.772 17.2873C19.8095 17.2666 19.8509 17.2501 19.8961 17.2379C19.9412 17.2256 19.9863 17.2163 20.0315 17.2097C20.0766 17.2031 20.1194 17.199 20.1599 17.197C20.2003 17.1952 20.2346 17.1941 20.2628 17.1941C20.2966 17.1941 20.3268 17.1947 20.353 17.1956C20.3793 17.1966 20.4132 17.199 20.4545 17.2027C20.4545 17.1594 20.4541 17.1213 20.4531 17.0885C20.4521 17.0556 20.4503 17.0273 20.4475 17.0038C20.4447 16.9804 20.4399 16.9592 20.4333 16.9404C20.4268 16.9216 20.4169 16.9047 20.4037 16.8896C20.3773 16.8539 20.3393 16.8295 20.2895 16.8163C20.2396 16.8032 20.196 16.7966 20.1584 16.7966C20.0907 16.7966 20.038 16.8065 20.0004 16.8262C19.9627 16.8459 19.9345 16.869 19.9158 16.8953C19.8969 16.9217 19.8852 16.9485 19.8805 16.9757C19.8758 17.003 19.8734 17.0232 19.8734 17.0364H19.6082C19.612 16.9988 19.619 16.957 19.6294 16.9109C19.6397 16.8648 19.6656 16.8174 19.707 16.7685C19.7333 16.7384 19.7653 16.7134 19.8029 16.6937C19.8405 16.6739 19.8794 16.6584 19.9199 16.6471C19.9604 16.6359 20.0017 16.6279 20.0441 16.6231C20.0864 16.6185 20.1263 16.616 20.164 16.616C20.2147 16.616 20.266 16.6203 20.3177 16.6287C20.3694 16.6372 20.4178 16.6499 20.4629 16.6669C20.5081 16.6838 20.5485 16.7054 20.5843 16.7317C20.62 16.758 20.6473 16.7891 20.6661 16.8248C20.6886 16.868 20.7022 16.907 20.707 16.9418C20.7116 16.9767 20.714 17.01 20.714 17.0419L20.7028 17.7189C20.7028 17.7246 20.7032 17.7397 20.7042 17.764C20.7052 17.7885 20.706 17.8176 20.707 17.8515C20.708 17.8853 20.7098 17.9219 20.7127 17.9615C20.7155 18.001 20.7197 18.0386 20.7254 18.0744L20.4855 18.0743ZM20.4545 17.386C20.43 17.3823 20.4066 17.38 20.384 17.379C20.3614 17.378 20.3341 17.3775 20.3022 17.3775C20.2758 17.3775 20.2345 17.379 20.178 17.3818C20.1217 17.3846 20.0648 17.395 20.0074 17.4128C19.9501 17.4307 19.8998 17.4594 19.8565 17.4989C19.8132 17.5383 19.7917 17.5938 19.7917 17.6653C19.7917 17.6879 19.7959 17.7132 19.8044 17.7415C19.8129 17.7696 19.8279 17.7964 19.8495 17.8218C19.8711 17.8472 19.9007 17.8684 19.9384 17.8853C19.976 17.9022 20.0249 17.9107 20.0851 17.9107C20.2205 17.9107 20.321 17.8599 20.3869 17.7583C20.4019 17.734 20.4137 17.7104 20.4222 17.6879C20.4306 17.6653 20.4367 17.6399 20.4405 17.6117C20.4443 17.5835 20.4471 17.5511 20.449 17.5144C20.4507 17.4777 20.4526 17.435 20.4545 17.386Z" fill="#232323"/>
<path d="M21.1556 16.8224L21.1528 16.6588H21.4179L21.4208 16.8873C21.4282 16.8722 21.441 16.8506 21.4589 16.8224C21.4768 16.7942 21.5031 16.766 21.5378 16.7378C21.5726 16.7096 21.6172 16.6847 21.6718 16.6631C21.7264 16.6415 21.794 16.6306 21.8749 16.6306C21.9069 16.6306 21.9515 16.6353 22.0089 16.6447C22.0663 16.6542 22.1232 16.6752 22.1795 16.7082C22.2359 16.741 22.2848 16.7896 22.3262 16.8534C22.3676 16.9174 22.3883 17.0039 22.3883 17.1129V18.0748H22.1175V17.175C22.1175 17.128 22.1128 17.0838 22.1034 17.0424C22.0939 17.0011 22.0733 16.9644 22.0414 16.9324C22.0075 16.9004 21.9685 16.8764 21.9243 16.8604C21.8801 16.8445 21.8354 16.8364 21.7903 16.8364C21.7414 16.8364 21.6949 16.8449 21.6507 16.8618C21.6065 16.8787 21.5675 16.9051 21.5336 16.9407C21.4998 16.9765 21.4725 17.0207 21.4518 17.0733C21.4311 17.126 21.4208 17.1881 21.4208 17.2595V18.0747H21.1557V16.8224H21.1556Z" fill="#232323"/>
<path d="M23.8122 16.0385H24.0773V17.8466C24.0773 17.8541 24.0778 17.8668 24.0788 17.8847C24.0797 17.9026 24.0806 17.9224 24.0816 17.9439C24.0825 17.9655 24.0834 17.9876 24.0844 18.0102C24.0853 18.0328 24.0867 18.0535 24.0886 18.0722H23.8235L23.8179 17.8466C23.8066 17.8673 23.792 17.8909 23.7742 17.9171C23.7563 17.9434 23.7285 17.9698 23.6909 17.9961C23.6326 18.0355 23.572 18.0628 23.509 18.0778C23.446 18.0928 23.3901 18.1004 23.3412 18.1004C23.2941 18.1004 23.2359 18.0919 23.1663 18.075C23.0967 18.0581 23.03 18.0242 22.966 17.9735C22.9021 17.9227 22.8471 17.8503 22.801 17.7563C22.7549 17.6623 22.7319 17.5373 22.7319 17.3811C22.7319 17.2457 22.7498 17.1296 22.7855 17.0327C22.8212 16.9359 22.8687 16.856 22.9279 16.793C22.9872 16.73 23.0552 16.6834 23.1324 16.6534C23.2095 16.6233 23.2894 16.6083 23.3722 16.6083C23.4474 16.6083 23.5113 16.6182 23.564 16.6379C23.6166 16.6576 23.6599 16.6807 23.6938 16.707C23.7277 16.7334 23.7534 16.7597 23.7713 16.7859C23.7892 16.8124 23.8028 16.833 23.8123 16.848V16.0385H23.8122ZM23.8206 17.3457C23.8206 17.2421 23.8103 17.1596 23.7896 17.0983C23.7689 17.0371 23.7435 16.9876 23.7135 16.9499C23.6853 16.9122 23.6453 16.8787 23.5936 16.8495C23.5419 16.8203 23.4784 16.8056 23.4033 16.8056C23.3374 16.8056 23.2824 16.8174 23.2383 16.841C23.194 16.8646 23.1578 16.8947 23.1296 16.9315C23.1014 16.9682 23.0793 17.0088 23.0633 17.053C23.0473 17.0974 23.0356 17.1408 23.0281 17.1832C23.0206 17.2256 23.0163 17.2643 23.0154 17.2991C23.0143 17.334 23.0139 17.359 23.0139 17.3741C23.0139 17.4363 23.0191 17.4999 23.0294 17.5649C23.0397 17.6299 23.0591 17.6885 23.0873 17.7403C23.1155 17.7921 23.155 17.8346 23.2058 17.8675C23.2565 17.9005 23.3223 17.9171 23.4033 17.9171C23.5067 17.9171 23.587 17.8926 23.6444 17.8436C23.7018 17.7946 23.7432 17.7375 23.7686 17.6725C23.7939 17.6074 23.809 17.5438 23.8137 17.4816C23.8182 17.4193 23.8206 17.3741 23.8206 17.3457Z" fill="#232323"/>
<path d="M25.0712 15.8431C25.147 15.8431 25.2185 15.8576 25.2857 15.8862C25.3528 15.9149 25.4111 15.954 25.4607 16.0037C25.5104 16.0533 25.5498 16.1116 25.5789 16.1787C25.6082 16.2459 25.6228 16.3178 25.6228 16.3946C25.6228 16.4725 25.6082 16.5449 25.5789 16.612C25.5498 16.6792 25.5102 16.7378 25.4601 16.7879C25.41 16.838 25.3514 16.8774 25.2842 16.9061C25.2171 16.9348 25.1461 16.9491 25.0712 16.9491C24.9963 16.9491 24.9255 16.9348 24.8589 16.9061C24.7922 16.8774 24.7339 16.838 24.6838 16.7879C24.6337 16.7378 24.5938 16.6792 24.5641 16.612C24.5345 16.5449 24.5197 16.4725 24.5197 16.3946C24.5197 16.3178 24.5345 16.2458 24.5641 16.1787C24.5938 16.1116 24.634 16.0533 24.6845 16.0037C24.7351 15.954 24.7937 15.9149 24.8603 15.8862C24.927 15.8576 24.9972 15.8431 25.0712 15.8431ZM25.0712 15.9088C25.005 15.9088 24.9425 15.9217 24.8837 15.9475C24.8249 15.9733 24.7734 16.008 24.729 16.0518C24.6848 16.0956 24.6498 16.1469 24.624 16.2057C24.5982 16.2646 24.5854 16.3275 24.5854 16.3946C24.5854 16.4637 24.5983 16.5279 24.624 16.5873C24.6498 16.6466 24.6848 16.6984 24.729 16.7427C24.7734 16.787 24.8248 16.8217 24.8837 16.847C24.9425 16.8724 25.0051 16.885 25.0712 16.885C25.1383 16.885 25.2012 16.8721 25.2601 16.8463C25.319 16.8206 25.3705 16.7855 25.4148 16.7413C25.4591 16.6971 25.4938 16.6453 25.5191 16.5859C25.5443 16.5266 25.5571 16.4629 25.5571 16.3948C25.5571 16.3296 25.5447 16.2676 25.5199 16.2088C25.4951 16.15 25.4608 16.0984 25.417 16.0541C25.3732 16.0098 25.3216 15.9746 25.2623 15.9483C25.203 15.9221 25.1393 15.9088 25.0712 15.9088ZM24.8699 16.0941H25.08C25.0907 16.0941 25.1072 16.0949 25.1296 16.0962C25.152 16.0977 25.1744 16.1031 25.1968 16.1123C25.2191 16.1216 25.2388 16.1364 25.2558 16.1568C25.2728 16.1772 25.2814 16.2059 25.2814 16.2428C25.2814 16.2477 25.2809 16.2562 25.2799 16.2684C25.2789 16.2806 25.2748 16.2939 25.2675 16.3085C25.2602 16.3231 25.249 16.3377 25.2339 16.3523C25.2189 16.3669 25.1977 16.3781 25.1705 16.3858C25.2015 16.3936 25.2232 16.4053 25.2354 16.4208C25.2475 16.4365 25.256 16.4627 25.2609 16.4996C25.2657 16.5366 25.2701 16.5697 25.274 16.5988C25.2779 16.628 25.2851 16.6572 25.2958 16.6863H25.2112C25.2083 16.6766 25.2057 16.6676 25.2033 16.6593C25.2008 16.6511 25.1987 16.6413 25.1967 16.6301C25.1947 16.619 25.1925 16.6056 25.1901 16.59C25.1876 16.5744 25.185 16.5549 25.182 16.5316C25.1801 16.5092 25.1767 16.4907 25.1719 16.4762C25.167 16.4615 25.1599 16.4499 25.1507 16.4411C25.1414 16.4323 25.1291 16.4263 25.1135 16.4228C25.0979 16.4194 25.0779 16.4178 25.0536 16.4178H24.9515V16.6862H24.8699V16.0941ZM24.9515 16.348H25.0799C25.0897 16.348 25.1013 16.3475 25.115 16.3465C25.1286 16.3456 25.1415 16.3422 25.1536 16.3364C25.1658 16.3305 25.1759 16.3215 25.1842 16.3093C25.1925 16.2972 25.1967 16.2799 25.1967 16.2575C25.1967 16.2342 25.1925 16.2161 25.1842 16.2036C25.1759 16.1909 25.166 16.1817 25.1543 16.1758C25.1426 16.17 25.13 16.1666 25.1163 16.1657C25.1027 16.1647 25.0906 16.1642 25.0799 16.1642H24.9515V16.348H24.9515Z" fill="#232323"/>
<path d="M5.00007 19.1803H5.47724C5.74145 19.1684 5.97019 19.267 5.97019 19.5786C5.97019 19.8763 5.72766 19.971 5.46543 19.977H5.19717V20.6039H5L5.00007 19.1803ZM5.50682 19.8073C5.53049 19.8073 5.76314 19.8191 5.76314 19.5785C5.76314 19.338 5.53049 19.3498 5.50682 19.3498H5.19717V19.8073H5.50682Z" fill="#232323"/>
<path d="M6.39505 20.6043H6.20776V19.6144H6.39505V19.8057H6.39896C6.42662 19.6698 6.55276 19.6006 6.68884 19.6006C6.71252 19.6006 6.73222 19.6026 6.7539 19.6026V19.7801C6.72824 19.7702 6.69873 19.7702 6.67306 19.7702C6.43643 19.778 6.39505 19.9042 6.39505 20.1132V20.6043Z" fill="#232323"/>
<path d="M7.08933 20.1461C7.07553 20.3196 7.14649 20.499 7.33776 20.499C7.48366 20.499 7.55661 20.4419 7.5783 20.2979H7.77547C7.74589 20.5227 7.5724 20.635 7.33577 20.635C7.0183 20.635 6.89209 20.4102 6.89209 20.1185C6.89209 19.8286 7.03799 19.5861 7.35148 19.5861C7.64727 19.592 7.78727 19.7793 7.78727 20.0535V20.1462L7.08933 20.1461ZM7.59017 20.016C7.59415 19.8504 7.51921 19.7222 7.33776 19.7222C7.18197 19.7222 7.08933 19.8543 7.08933 20.016H7.59017Z" fill="#232323"/>
<path d="M8.62005 19.933C8.61017 19.8089 8.55108 19.7222 8.41698 19.7222C8.23759 19.7222 8.16855 19.8779 8.16855 20.1106C8.16855 20.3433 8.23752 20.499 8.41698 20.499C8.54127 20.499 8.61813 20.4181 8.62794 20.2761H8.8153C8.79951 20.499 8.63385 20.635 8.41499 20.635C8.09759 20.635 7.97131 20.4102 7.97131 20.1185C7.97131 19.8286 8.11722 19.5861 8.43071 19.5861C8.63975 19.5861 8.79746 19.7183 8.80734 19.9331L8.62005 19.933Z" fill="#232323"/>
<path d="M9.04175 19.1809H9.26458V19.384H9.04175V19.1809ZM9.05952 20.6045V19.6147H9.24681V20.6045H9.05952Z" fill="#232323"/>
<path d="M9.92098 19.5861C10.1083 19.5861 10.3192 19.665 10.3054 19.8898H10.1083C10.1161 19.7636 10.0195 19.7222 9.9111 19.7222C9.81049 19.7222 9.72964 19.7695 9.72964 19.88C9.72964 19.9904 9.89922 19.9983 9.97018 20.0199C10.1378 20.0752 10.331 20.0949 10.331 20.3176C10.331 20.5601 10.0943 20.6351 9.89133 20.6351C9.68428 20.6351 9.51079 20.5405 9.51271 20.3117H9.70988C9.71386 20.434 9.79662 20.499 9.91103 20.499C10.0214 20.499 10.1339 20.4556 10.1339 20.3274C10.1339 20.1067 9.53248 20.2722 9.53248 19.8857C9.53254 19.6787 9.74159 19.5861 9.92098 19.5861Z" fill="#232323"/>
<path d="M10.7116 20.1461C10.6978 20.3196 10.7688 20.499 10.9601 20.499C11.106 20.499 11.1789 20.4419 11.2006 20.2979H11.3978C11.3682 20.5227 11.1947 20.635 10.9581 20.635C10.6407 20.635 10.5144 20.4102 10.5144 20.1185C10.5144 19.8286 10.6603 19.5861 10.9738 19.5861C11.2696 19.592 11.4096 19.7793 11.4096 20.0535V20.1462L10.7116 20.1461ZM11.2125 20.016C11.2165 19.8504 11.1415 19.7222 10.9601 19.7222C10.8044 19.7222 10.7116 19.8543 10.7116 20.016H11.2125Z" fill="#232323"/>
<path d="M11.6907 20.6045V19.1809H11.878V20.6045H11.6907Z" fill="#232323"/>
<path d="M12.5442 20.9817H12.3529L12.5028 20.5992L12.0907 19.6134H12.2997L12.6093 20.3942L12.9247 19.6134H13.1259L12.5442 20.9817Z" fill="#232323"/>
<path d="M14.0692 19.9617V20.6045H13.8719V19.1809H14.3808C14.6193 19.1809 14.8657 19.2559 14.8657 19.5379C14.8657 19.7094 14.7631 19.8414 14.5976 19.8808V19.8848C14.7691 19.9262 14.7927 20.017 14.8145 20.1767C14.8362 20.3187 14.852 20.4705 14.9032 20.6045H14.6923C14.6745 20.5197 14.6508 20.4271 14.6409 20.3423C14.6252 20.2142 14.6252 20.0979 14.5601 20.0268C14.503 19.9617 14.4241 19.9677 14.3451 19.9617H14.0692ZM14.0653 19.7922H14.3905C14.6094 19.7823 14.6586 19.6837 14.6586 19.5714C14.6586 19.4588 14.6094 19.3603 14.3905 19.3504H14.0653V19.7922Z" fill="#232323"/>
<path d="M15.1823 19.1809H15.4052V19.384H15.1823V19.1809ZM15.2 20.6045V19.6147H15.3874V20.6045H15.2Z" fill="#232323"/>
<path d="M16.4246 19.6156H16.6178C16.6119 19.6748 16.606 19.734 16.606 19.7931V20.4892C16.606 20.8519 16.4482 20.9998 16.0855 20.9998C15.8725 20.9998 15.7207 20.9091 15.7187 20.6804H15.9159C15.9238 20.8125 16.0144 20.8637 16.1465 20.8637C16.4127 20.8637 16.4127 20.6429 16.4187 20.4202H16.4127C16.3536 20.5384 16.2096 20.5876 16.0874 20.5876C15.7857 20.5876 15.6654 20.3746 15.6654 20.0967C15.6654 19.8108 15.8252 19.5861 16.1249 19.5861C16.2214 19.5861 16.3279 19.6256 16.3892 19.7162C16.3931 19.7201 16.4187 19.7773 16.4187 19.7635L16.4246 19.6156ZM16.1406 20.4517C16.3438 20.4517 16.4187 20.2782 16.4187 20.0869C16.4187 19.8957 16.3438 19.7222 16.1406 19.7222C15.9218 19.7222 15.8626 19.9313 15.8626 20.0869C15.8627 20.2427 15.9218 20.4517 16.1406 20.4517Z" fill="#232323"/>
<path d="M16.9475 20.6045V19.1809H17.1348V19.7468H17.1388C17.2098 19.6364 17.3162 19.5852 17.4603 19.5852C17.7186 19.5852 17.7993 19.7567 17.7993 19.9341V20.6046H17.612V20.019C17.612 19.8455 17.5667 19.7331 17.3911 19.7291C17.3162 19.7272 17.2018 19.7844 17.1665 19.8671C17.123 19.9696 17.1348 20.0407 17.1348 20.0959V20.6046L16.9475 20.6045Z" fill="#232323"/>
<path d="M18.161 19.6154V19.4045L18.3482 19.3454V19.6155L18.5769 19.6096V19.7496L18.3482 19.7476V20.3865C18.3482 20.4575 18.4034 20.491 18.4704 20.491C18.5 20.491 18.5394 20.4871 18.5691 20.4791V20.6231C18.5256 20.625 18.4843 20.6349 18.4408 20.6349C18.3955 20.6349 18.3601 20.633 18.3147 20.625C18.2851 20.6191 18.2358 20.6035 18.2043 20.5599C18.1709 20.5127 18.161 20.5087 18.161 20.3766V19.7476L17.9913 19.7496V19.6096L18.161 19.6154Z" fill="#232323"/>
<path d="M18.7919 20.6025V20.3659H19.0205V20.6025H18.7919Z" fill="#232323"/>
<rect x="1" y="1" width="28.6227" height="23.9998" rx="4" stroke="#535353" stroke-opacity="0.7"/>
</svg>
